<?xml version="1.0" encoding="utf-8" standalone="no"?>
<!DOCTYPE svg PUBLIC "-//W3C//DTD SVG 1.1//EN"
  "http://www.w3.org/Graphics/SVG/1.1/DTD/svg11.dtd">
<svg xmlns:xlink="http://www.w3.org/1999/xlink" width="1152pt" height="720pt" viewBox="0 0 1152 720" xmlns="http://www.w3.org/2000/svg" version="1.1">
 <metadata>
  <rdf:RDF xmlns:dc="http://purl.org/dc/elements/1.1/" xmlns:cc="http://creativecommons.org/ns#" xmlns:rdf="http://www.w3.org/1999/02/22-rdf-syntax-ns#">
   <cc:Work>
    <dc:type rdf:resource="http://purl.org/dc/dcmitype/StillImage"/>
    <dc:date>2025-04-11T10:57:40.601119</dc:date>
    <dc:format>image/svg+xml</dc:format>
    <dc:creator>
     <cc:Agent>
      <dc:title>Matplotlib v3.7.5, https://matplotlib.org/</dc:title>
     </cc:Agent>
    </dc:creator>
   </cc:Work>
  </rdf:RDF>
 </metadata>
 <defs>
  <style type="text/css">*{stroke-linejoin: round; stroke-linecap: butt}</style>
 </defs>
 <g id="figure_1">
  <g id="patch_1">
   <path d="M 0 720 
L 1152 720 
L 1152 0 
L 0 0 
L 0 720 
z
" style="fill: none"/>
  </g>
  <g id="axes_1">
   <g id="patch_2">
    <path d="M 83.503418 501.915499 
L 1141.2 501.915499 
L 1141.2 28.414286 
L 83.503418 28.414286 
z
" style="fill: #ffffff"/>
   </g>
   <g id="patch_3">
    <path d="M 131.580536 501.915499 
L 153.941986 501.915499 
L 153.941986 96.784661 
L 131.580536 96.784661 
z
" clip-path="url(#p68ac61a3fd)" style="fill: #8ecfc9"/>
   </g>
   <g id="patch_4">
    <path d="M 221.026335 501.915499 
L 243.387785 501.915499 
L 243.387785 83.643972 
L 221.026335 83.643972 
z
" clip-path="url(#p68ac61a3fd)" style="fill: #8ecfc9"/>
   </g>
   <g id="patch_5">
    <path d="M 310.472135 501.915499 
L 332.833585 501.915499 
L 332.833585 64.975465 
L 310.472135 64.975465 
z
" clip-path="url(#p68ac61a3fd)" style="fill: #8ecfc9"/>
   </g>
   <g id="patch_6">
    <path d="M 399.917935 501.915499 
L 422.279385 501.915499 
L 422.279385 77.728237 
L 399.917935 77.728237 
z
" clip-path="url(#p68ac61a3fd)" style="fill: #8ecfc9"/>
   </g>
   <g id="patch_7">
    <path d="M 489.363735 501.915499 
L 511.725184 501.915499 
L 511.725184 81.558918 
L 489.363735 81.558918 
z
" clip-path="url(#p68ac61a3fd)" style="fill: #8ecfc9"/>
   </g>
   <g id="patch_8">
    <path d="M 578.809534 501.915499 
L 601.170984 501.915499 
L 601.170984 106.870503 
L 578.809534 106.870503 
z
" clip-path="url(#p68ac61a3fd)" style="fill: #8ecfc9"/>
   </g>
   <g id="patch_9">
    <path d="M 668.255334 501.915499 
L 690.616784 501.915499 
L 690.616784 69.921407 
L 668.255334 69.921407 
z
" clip-path="url(#p68ac61a3fd)" style="fill: #8ecfc9"/>
   </g>
   <g id="patch_10">
    <path d="M 757.701134 501.915499 
L 780.062584 501.915499 
L 780.062584 116.42296 
L 757.701134 116.42296 
z
" clip-path="url(#p68ac61a3fd)" style="fill: #8ecfc9"/>
   </g>
   <g id="patch_11">
    <path d="M 847.146933 501.915499 
L 869.508383 501.915499 
L 869.508383 96.639192 
L 847.146933 96.639192 
z
" clip-path="url(#p68ac61a3fd)" style="fill: #8ecfc9"/>
   </g>
   <g id="patch_12">
    <path d="M 936.592733 501.915499 
L 958.954183 501.915499 
L 958.954183 87.038245 
L 936.592733 87.038245 
z
" clip-path="url(#p68ac61a3fd)" style="fill: #8ecfc9"/>
   </g>
   <g id="patch_13">
    <path d="M 1026.038533 501.915499 
L 1048.399983 501.915499 
L 1048.399983 50.961963 
L 1026.038533 50.961963 
z
" clip-path="url(#p68ac61a3fd)" style="fill: #8ecfc9"/>
   </g>
   <g id="patch_14">
    <path d="M 153.941986 501.915499 
L 176.303436 501.915499 
L 176.303436 432.090435 
L 153.941986 432.090435 
z
" clip-path="url(#p68ac61a3fd)" style="fill: #ffbe7a"/>
   </g>
   <g id="patch_15">
    <path d="M 243.387785 501.915499 
L 265.749235 501.915499 
L 265.749235 446.782792 
L 243.387785 446.782792 
z
" clip-path="url(#p68ac61a3fd)" style="fill: #ffbe7a"/>
   </g>
   <g id="patch_16">
    <path d="M 332.833585 501.915499 
L 355.195035 501.915499 
L 355.195035 460.16593 
L 332.833585 460.16593 
z
" clip-path="url(#p68ac61a3fd)" style="fill: #ffbe7a"/>
   </g>
   <g id="patch_17">
    <path d="M 422.279385 501.915499 
L 444.640835 501.915499 
L 444.640835 450.225556 
L 422.279385 450.225556 
z
" clip-path="url(#p68ac61a3fd)" style="fill: #ffbe7a"/>
   </g>
   <g id="patch_18">
    <path d="M 511.725184 501.915499 
L 534.086634 501.915499 
L 534.086634 446.976751 
L 511.725184 446.976751 
z
" clip-path="url(#p68ac61a3fd)" style="fill: #ffbe7a"/>
   </g>
   <g id="patch_19">
    <path d="M 601.170984 501.915499 
L 623.532434 501.915499 
L 623.532434 429.568975 
L 601.170984 429.568975 
z
" clip-path="url(#p68ac61a3fd)" style="fill: #ffbe7a"/>
   </g>
   <g id="patch_20">
    <path d="M 690.616784 501.915499 
L 712.978234 501.915499 
L 712.978234 454.492643 
L 690.616784 454.492643 
z
" clip-path="url(#p68ac61a3fd)" style="fill: #ffbe7a"/>
   </g>
   <g id="patch_21">
    <path d="M 780.062584 501.915499 
L 802.424034 501.915499 
L 802.424034 418.173912 
L 780.062584 418.173912 
z
" clip-path="url(#p68ac61a3fd)" style="fill: #ffbe7a"/>
   </g>
   <g id="patch_22">
    <path d="M 869.508383 501.915499 
L 891.869833 501.915499 
L 891.869833 434.611896 
L 869.508383 434.611896 
z
" clip-path="url(#p68ac61a3fd)" style="fill: #ffbe7a"/>
   </g>
   <g id="patch_23">
    <path d="M 958.954183 501.915499 
L 981.315633 501.915499 
L 981.315633 443.000601 
L 958.954183 443.000601 
z
" clip-path="url(#p68ac61a3fd)" style="fill: #ffbe7a"/>
   </g>
   <g id="patch_24">
    <path d="M 1048.399983 501.915499 
L 1070.761433 501.915499 
L 1070.761433 477.816154 
L 1048.399983 477.816154 
z
" clip-path="url(#p68ac61a3fd)" style="fill: #ffbe7a"/>
   </g>
   <g id="patch_25">
    <path d="M 176.303436 501.915499 
L 198.664885 501.915499 
L 198.664885 491.975125 
L 176.303436 491.975125 
z
" clip-path="url(#p68ac61a3fd)" style="fill: #fa7f6f"/>
   </g>
   <g id="patch_26">
    <path d="M 265.749235 501.915499 
L 288.110685 501.915499 
L 288.110685 490.423457 
L 265.749235 490.423457 
z
" clip-path="url(#p68ac61a3fd)" style="fill: #fa7f6f"/>
   </g>
   <g id="patch_27">
    <path d="M 355.195035 501.915499 
L 377.556485 501.915499 
L 377.556485 495.708827 
L 355.195035 495.708827 
z
" clip-path="url(#p68ac61a3fd)" style="fill: #fa7f6f"/>
   </g>
   <g id="patch_28">
    <path d="M 444.640835 501.915499 
L 467.002285 501.915499 
L 467.002285 492.896428 
L 444.640835 492.896428 
z
" clip-path="url(#p68ac61a3fd)" style="fill: #fa7f6f"/>
   </g>
   <g id="patch_29">
    <path d="M 534.086634 501.915499 
L 556.448084 501.915499 
L 556.448084 492.314553 
L 534.086634 492.314553 
z
" clip-path="url(#p68ac61a3fd)" style="fill: #fa7f6f"/>
   </g>
   <g id="patch_30">
    <path d="M 623.532434 501.915499 
L 645.893884 501.915499 
L 645.893884 484.362254 
L 623.532434 484.362254 
z
" clip-path="url(#p68ac61a3fd)" style="fill: #fa7f6f"/>
   </g>
   <g id="patch_31">
    <path d="M 712.978234 501.915499 
L 735.339684 501.915499 
L 735.339684 496.484661 
L 712.978234 496.484661 
z
" clip-path="url(#p68ac61a3fd)" style="fill: #fa7f6f"/>
   </g>
   <g id="patch_32">
    <path d="M 802.424034 501.915499 
L 824.785484 501.915499 
L 824.785484 486.301839 
L 802.424034 486.301839 
z
" clip-path="url(#p68ac61a3fd)" style="fill: #fa7f6f"/>
   </g>
   <g id="patch_33">
    <path d="M 891.869833 501.915499 
L 914.231283 501.915499 
L 914.231283 489.599134 
L 891.869833 489.599134 
z
" clip-path="url(#p68ac61a3fd)" style="fill: #fa7f6f"/>
   </g>
   <g id="patch_34">
    <path d="M 981.315633 501.915499 
L 1003.677083 501.915499 
L 1003.677083 490.811374 
L 981.315633 490.811374 
z
" clip-path="url(#p68ac61a3fd)" style="fill: #fa7f6f"/>
   </g>
   <g id="patch_35">
    <path d="M 1070.761433 501.915499 
L 1093.122883 501.915499 
L 1093.122883 492.072105 
L 1070.761433 492.072105 
z
" clip-path="url(#p68ac61a3fd)" style="fill: #fa7f6f"/>
   </g>
   <g id="matplotlib.axis_1">
    <g id="xtick_1">
     <g id="line2d_1">
      <defs>
       <path id="m0a0739ba31" d="M 0 0 
L 0 3.5 
" style="stroke: #000000; stroke-width: 0.8"/>
      </defs>
      <g>
       <use xlink:href="#m0a0739ba31" x="165.122711" y="501.915499" style="stroke: #000000; stroke-width: 0.8"/>
      </g>
     </g>
     <g id="text_1">
      <!-- Community Interaction -->
      <g transform="translate(32.315683 647.96628) rotate(-45) scale(0.16 -0.16)">
       <defs>
        <path id="DejaVuSans-43" d="M 4122 4306 
L 4122 3641 
Q 3803 3938 3442 4084 
Q 3081 4231 2675 4231 
Q 1875 4231 1450 3742 
Q 1025 3253 1025 2328 
Q 1025 1406 1450 917 
Q 1875 428 2675 428 
Q 3081 428 3442 575 
Q 3803 722 4122 1019 
L 4122 359 
Q 3791 134 3420 21 
Q 3050 -91 2638 -91 
Q 1578 -91 968 557 
Q 359 1206 359 2328 
Q 359 3453 968 4101 
Q 1578 4750 2638 4750 
Q 3056 4750 3426 4639 
Q 3797 4528 4122 4306 
z
" transform="scale(0.015625)"/>
        <path id="DejaVuSans-6f" d="M 1959 3097 
Q 1497 3097 1228 2736 
Q 959 2375 959 1747 
Q 959 1119 1226 758 
Q 1494 397 1959 397 
Q 2419 397 2687 759 
Q 2956 1122 2956 1747 
Q 2956 2369 2687 2733 
Q 2419 3097 1959 3097 
z
M 1959 3584 
Q 2709 3584 3137 3096 
Q 3566 2609 3566 1747 
Q 3566 888 3137 398 
Q 2709 -91 1959 -91 
Q 1206 -91 779 398 
Q 353 888 353 1747 
Q 353 2609 779 3096 
Q 1206 3584 1959 3584 
z
" transform="scale(0.015625)"/>
        <path id="DejaVuSans-6d" d="M 3328 2828 
Q 3544 3216 3844 3400 
Q 4144 3584 4550 3584 
Q 5097 3584 5394 3201 
Q 5691 2819 5691 2113 
L 5691 0 
L 5113 0 
L 5113 2094 
Q 5113 2597 4934 2840 
Q 4756 3084 4391 3084 
Q 3944 3084 3684 2787 
Q 3425 2491 3425 1978 
L 3425 0 
L 2847 0 
L 2847 2094 
Q 2847 2600 2669 2842 
Q 2491 3084 2119 3084 
Q 1678 3084 1418 2786 
Q 1159 2488 1159 1978 
L 1159 0 
L 581 0 
L 581 3500 
L 1159 3500 
L 1159 2956 
Q 1356 3278 1631 3431 
Q 1906 3584 2284 3584 
Q 2666 3584 2933 3390 
Q 3200 3197 3328 2828 
z
" transform="scale(0.015625)"/>
        <path id="DejaVuSans-75" d="M 544 1381 
L 544 3500 
L 1119 3500 
L 1119 1403 
Q 1119 906 1312 657 
Q 1506 409 1894 409 
Q 2359 409 2629 706 
Q 2900 1003 2900 1516 
L 2900 3500 
L 3475 3500 
L 3475 0 
L 2900 0 
L 2900 538 
Q 2691 219 2414 64 
Q 2138 -91 1772 -91 
Q 1169 -91 856 284 
Q 544 659 544 1381 
z
M 1991 3584 
L 1991 3584 
z
" transform="scale(0.015625)"/>
        <path id="DejaVuSans-6e" d="M 3513 2113 
L 3513 0 
L 2938 0 
L 2938 2094 
Q 2938 2591 2744 2837 
Q 2550 3084 2163 3084 
Q 1697 3084 1428 2787 
Q 1159 2491 1159 1978 
L 1159 0 
L 581 0 
L 581 3500 
L 1159 3500 
L 1159 2956 
Q 1366 3272 1645 3428 
Q 1925 3584 2291 3584 
Q 2894 3584 3203 3211 
Q 3513 2838 3513 2113 
z
" transform="scale(0.015625)"/>
        <path id="DejaVuSans-69" d="M 603 3500 
L 1178 3500 
L 1178 0 
L 603 0 
L 603 3500 
z
M 603 4863 
L 1178 4863 
L 1178 4134 
L 603 4134 
L 603 4863 
z
" transform="scale(0.015625)"/>
        <path id="DejaVuSans-74" d="M 1172 4494 
L 1172 3500 
L 2356 3500 
L 2356 3053 
L 1172 3053 
L 1172 1153 
Q 1172 725 1289 603 
Q 1406 481 1766 481 
L 2356 481 
L 2356 0 
L 1766 0 
Q 1100 0 847 248 
Q 594 497 594 1153 
L 594 3053 
L 172 3053 
L 172 3500 
L 594 3500 
L 594 4494 
L 1172 4494 
z
" transform="scale(0.015625)"/>
        <path id="DejaVuSans-79" d="M 2059 -325 
Q 1816 -950 1584 -1140 
Q 1353 -1331 966 -1331 
L 506 -1331 
L 506 -850 
L 844 -850 
Q 1081 -850 1212 -737 
Q 1344 -625 1503 -206 
L 1606 56 
L 191 3500 
L 800 3500 
L 1894 763 
L 2988 3500 
L 3597 3500 
L 2059 -325 
z
" transform="scale(0.015625)"/>
        <path id="DejaVuSans-20" transform="scale(0.015625)"/>
        <path id="DejaVuSans-49" d="M 628 4666 
L 1259 4666 
L 1259 0 
L 628 0 
L 628 4666 
z
" transform="scale(0.015625)"/>
        <path id="DejaVuSans-65" d="M 3597 1894 
L 3597 1613 
L 953 1613 
Q 991 1019 1311 708 
Q 1631 397 2203 397 
Q 2534 397 2845 478 
Q 3156 559 3463 722 
L 3463 178 
Q 3153 47 2828 -22 
Q 2503 -91 2169 -91 
Q 1331 -91 842 396 
Q 353 884 353 1716 
Q 353 2575 817 3079 
Q 1281 3584 2069 3584 
Q 2775 3584 3186 3129 
Q 3597 2675 3597 1894 
z
M 3022 2063 
Q 3016 2534 2758 2815 
Q 2500 3097 2075 3097 
Q 1594 3097 1305 2825 
Q 1016 2553 972 2059 
L 3022 2063 
z
" transform="scale(0.015625)"/>
        <path id="DejaVuSans-72" d="M 2631 2963 
Q 2534 3019 2420 3045 
Q 2306 3072 2169 3072 
Q 1681 3072 1420 2755 
Q 1159 2438 1159 1844 
L 1159 0 
L 581 0 
L 581 3500 
L 1159 3500 
L 1159 2956 
Q 1341 3275 1631 3429 
Q 1922 3584 2338 3584 
Q 2397 3584 2469 3576 
Q 2541 3569 2628 3553 
L 2631 2963 
z
" transform="scale(0.015625)"/>
        <path id="DejaVuSans-61" d="M 2194 1759 
Q 1497 1759 1228 1600 
Q 959 1441 959 1056 
Q 959 750 1161 570 
Q 1363 391 1709 391 
Q 2188 391 2477 730 
Q 2766 1069 2766 1631 
L 2766 1759 
L 2194 1759 
z
M 3341 1997 
L 3341 0 
L 2766 0 
L 2766 531 
Q 2569 213 2275 61 
Q 1981 -91 1556 -91 
Q 1019 -91 701 211 
Q 384 513 384 1019 
Q 384 1609 779 1909 
Q 1175 2209 1959 2209 
L 2766 2209 
L 2766 2266 
Q 2766 2663 2505 2880 
Q 2244 3097 1772 3097 
Q 1472 3097 1187 3025 
Q 903 2953 641 2809 
L 641 3341 
Q 956 3463 1253 3523 
Q 1550 3584 1831 3584 
Q 2591 3584 2966 3190 
Q 3341 2797 3341 1997 
z
" transform="scale(0.015625)"/>
        <path id="DejaVuSans-63" d="M 3122 3366 
L 3122 2828 
Q 2878 2963 2633 3030 
Q 2388 3097 2138 3097 
Q 1578 3097 1268 2742 
Q 959 2388 959 1747 
Q 959 1106 1268 751 
Q 1578 397 2138 397 
Q 2388 397 2633 464 
Q 2878 531 3122 666 
L 3122 134 
Q 2881 22 2623 -34 
Q 2366 -91 2075 -91 
Q 1284 -91 818 406 
Q 353 903 353 1747 
Q 353 2603 823 3093 
Q 1294 3584 2113 3584 
Q 2378 3584 2631 3529 
Q 2884 3475 3122 3366 
z
" transform="scale(0.015625)"/>
       </defs>
       <use xlink:href="#DejaVuSans-43"/>
       <use xlink:href="#DejaVuSans-6f" x="69.824219"/>
       <use xlink:href="#DejaVuSans-6d" x="131.005859"/>
       <use xlink:href="#DejaVuSans-6d" x="228.417969"/>
       <use xlink:href="#DejaVuSans-75" x="325.830078"/>
       <use xlink:href="#DejaVuSans-6e" x="389.208984"/>
       <use xlink:href="#DejaVuSans-69" x="452.587891"/>
       <use xlink:href="#DejaVuSans-74" x="480.371094"/>
       <use xlink:href="#DejaVuSans-79" x="519.580078"/>
       <use xlink:href="#DejaVuSans-20" x="578.759766"/>
       <use xlink:href="#DejaVuSans-49" x="610.546875"/>
       <use xlink:href="#DejaVuSans-6e" x="640.039062"/>
       <use xlink:href="#DejaVuSans-74" x="703.417969"/>
       <use xlink:href="#DejaVuSans-65" x="742.626953"/>
       <use xlink:href="#DejaVuSans-72" x="804.150391"/>
       <use xlink:href="#DejaVuSans-61" x="845.263672"/>
       <use xlink:href="#DejaVuSans-63" x="906.542969"/>
       <use xlink:href="#DejaVuSans-74" x="961.523438"/>
       <use xlink:href="#DejaVuSans-69" x="1000.732422"/>
       <use xlink:href="#DejaVuSans-6f" x="1028.515625"/>
       <use xlink:href="#DejaVuSans-6e" x="1089.697266"/>
      </g>
     </g>
    </g>
    <g id="xtick_2">
     <g id="line2d_2">
      <g>
       <use xlink:href="#m0a0739ba31" x="254.56851" y="501.915499" style="stroke: #000000; stroke-width: 0.8"/>
      </g>
     </g>
     <g id="text_2">
      <!-- Digital Asset -->
      <g transform="translate(181.004656 588.723106) rotate(-45) scale(0.16 -0.16)">
       <defs>
        <path id="DejaVuSans-44" d="M 1259 4147 
L 1259 519 
L 2022 519 
Q 2988 519 3436 956 
Q 3884 1394 3884 2338 
Q 3884 3275 3436 3711 
Q 2988 4147 2022 4147 
L 1259 4147 
z
M 628 4666 
L 1925 4666 
Q 3281 4666 3915 4102 
Q 4550 3538 4550 2338 
Q 4550 1131 3912 565 
Q 3275 0 1925 0 
L 628 0 
L 628 4666 
z
" transform="scale(0.015625)"/>
        <path id="DejaVuSans-67" d="M 2906 1791 
Q 2906 2416 2648 2759 
Q 2391 3103 1925 3103 
Q 1463 3103 1205 2759 
Q 947 2416 947 1791 
Q 947 1169 1205 825 
Q 1463 481 1925 481 
Q 2391 481 2648 825 
Q 2906 1169 2906 1791 
z
M 3481 434 
Q 3481 -459 3084 -895 
Q 2688 -1331 1869 -1331 
Q 1566 -1331 1297 -1286 
Q 1028 -1241 775 -1147 
L 775 -588 
Q 1028 -725 1275 -790 
Q 1522 -856 1778 -856 
Q 2344 -856 2625 -561 
Q 2906 -266 2906 331 
L 2906 616 
Q 2728 306 2450 153 
Q 2172 0 1784 0 
Q 1141 0 747 490 
Q 353 981 353 1791 
Q 353 2603 747 3093 
Q 1141 3584 1784 3584 
Q 2172 3584 2450 3431 
Q 2728 3278 2906 2969 
L 2906 3500 
L 3481 3500 
L 3481 434 
z
" transform="scale(0.015625)"/>
        <path id="DejaVuSans-6c" d="M 603 4863 
L 1178 4863 
L 1178 0 
L 603 0 
L 603 4863 
z
" transform="scale(0.015625)"/>
        <path id="DejaVuSans-41" d="M 2188 4044 
L 1331 1722 
L 3047 1722 
L 2188 4044 
z
M 1831 4666 
L 2547 4666 
L 4325 0 
L 3669 0 
L 3244 1197 
L 1141 1197 
L 716 0 
L 50 0 
L 1831 4666 
z
" transform="scale(0.015625)"/>
        <path id="DejaVuSans-73" d="M 2834 3397 
L 2834 2853 
Q 2591 2978 2328 3040 
Q 2066 3103 1784 3103 
Q 1356 3103 1142 2972 
Q 928 2841 928 2578 
Q 928 2378 1081 2264 
Q 1234 2150 1697 2047 
L 1894 2003 
Q 2506 1872 2764 1633 
Q 3022 1394 3022 966 
Q 3022 478 2636 193 
Q 2250 -91 1575 -91 
Q 1294 -91 989 -36 
Q 684 19 347 128 
L 347 722 
Q 666 556 975 473 
Q 1284 391 1588 391 
Q 1994 391 2212 530 
Q 2431 669 2431 922 
Q 2431 1156 2273 1281 
Q 2116 1406 1581 1522 
L 1381 1569 
Q 847 1681 609 1914 
Q 372 2147 372 2553 
Q 372 3047 722 3315 
Q 1072 3584 1716 3584 
Q 2034 3584 2315 3537 
Q 2597 3491 2834 3397 
z
" transform="scale(0.015625)"/>
       </defs>
       <use xlink:href="#DejaVuSans-44"/>
       <use xlink:href="#DejaVuSans-69" x="77.001953"/>
       <use xlink:href="#DejaVuSans-67" x="104.785156"/>
       <use xlink:href="#DejaVuSans-69" x="168.261719"/>
       <use xlink:href="#DejaVuSans-74" x="196.044922"/>
       <use xlink:href="#DejaVuSans-61" x="235.253906"/>
       <use xlink:href="#DejaVuSans-6c" x="296.533203"/>
       <use xlink:href="#DejaVuSans-20" x="324.316406"/>
       <use xlink:href="#DejaVuSans-41" x="356.103516"/>
       <use xlink:href="#DejaVuSans-73" x="424.511719"/>
       <use xlink:href="#DejaVuSans-73" x="476.611328"/>
       <use xlink:href="#DejaVuSans-65" x="528.710938"/>
       <use xlink:href="#DejaVuSans-74" x="590.234375"/>
      </g>
     </g>
    </g>
    <g id="xtick_3">
     <g id="line2d_3">
      <g>
       <use xlink:href="#m0a0739ba31" x="344.01431" y="501.915499" style="stroke: #000000; stroke-width: 0.8"/>
      </g>
     </g>
     <g id="text_3">
      <!-- Documentation -->
      <g transform="translate(254.445094 604.728468) rotate(-45) scale(0.16 -0.16)">
       <use xlink:href="#DejaVuSans-44"/>
       <use xlink:href="#DejaVuSans-6f" x="77.001953"/>
       <use xlink:href="#DejaVuSans-63" x="138.183594"/>
       <use xlink:href="#DejaVuSans-75" x="193.164062"/>
       <use xlink:href="#DejaVuSans-6d" x="256.542969"/>
       <use xlink:href="#DejaVuSans-65" x="353.955078"/>
       <use xlink:href="#DejaVuSans-6e" x="415.478516"/>
       <use xlink:href="#DejaVuSans-74" x="478.857422"/>
       <use xlink:href="#DejaVuSans-61" x="518.066406"/>
       <use xlink:href="#DejaVuSans-74" x="579.345703"/>
       <use xlink:href="#DejaVuSans-69" x="618.554688"/>
       <use xlink:href="#DejaVuSans-6f" x="646.337891"/>
       <use xlink:href="#DejaVuSans-6e" x="707.519531"/>
      </g>
     </g>
    </g>
    <g id="xtick_4">
     <g id="line2d_4">
      <g>
       <use xlink:href="#m0a0739ba31" x="433.46011" y="501.915499" style="stroke: #000000; stroke-width: 0.8"/>
      </g>
     </g>
     <g id="text_4">
      <!-- User Experience &amp; Interaction -->
      <g transform="translate(261.233647 687.385715) rotate(-45) scale(0.16 -0.16)">
       <defs>
        <path id="DejaVuSans-55" d="M 556 4666 
L 1191 4666 
L 1191 1831 
Q 1191 1081 1462 751 
Q 1734 422 2344 422 
Q 2950 422 3222 751 
Q 3494 1081 3494 1831 
L 3494 4666 
L 4128 4666 
L 4128 1753 
Q 4128 841 3676 375 
Q 3225 -91 2344 -91 
Q 1459 -91 1007 375 
Q 556 841 556 1753 
L 556 4666 
z
" transform="scale(0.015625)"/>
        <path id="DejaVuSans-45" d="M 628 4666 
L 3578 4666 
L 3578 4134 
L 1259 4134 
L 1259 2753 
L 3481 2753 
L 3481 2222 
L 1259 2222 
L 1259 531 
L 3634 531 
L 3634 0 
L 628 0 
L 628 4666 
z
" transform="scale(0.015625)"/>
        <path id="DejaVuSans-78" d="M 3513 3500 
L 2247 1797 
L 3578 0 
L 2900 0 
L 1881 1375 
L 863 0 
L 184 0 
L 1544 1831 
L 300 3500 
L 978 3500 
L 1906 2253 
L 2834 3500 
L 3513 3500 
z
" transform="scale(0.015625)"/>
        <path id="DejaVuSans-70" d="M 1159 525 
L 1159 -1331 
L 581 -1331 
L 581 3500 
L 1159 3500 
L 1159 2969 
Q 1341 3281 1617 3432 
Q 1894 3584 2278 3584 
Q 2916 3584 3314 3078 
Q 3713 2572 3713 1747 
Q 3713 922 3314 415 
Q 2916 -91 2278 -91 
Q 1894 -91 1617 61 
Q 1341 213 1159 525 
z
M 3116 1747 
Q 3116 2381 2855 2742 
Q 2594 3103 2138 3103 
Q 1681 3103 1420 2742 
Q 1159 2381 1159 1747 
Q 1159 1113 1420 752 
Q 1681 391 2138 391 
Q 2594 391 2855 752 
Q 3116 1113 3116 1747 
z
" transform="scale(0.015625)"/>
        <path id="DejaVuSans-26" d="M 1556 2509 
Q 1272 2256 1139 2004 
Q 1006 1753 1006 1478 
Q 1006 1022 1337 719 
Q 1669 416 2169 416 
Q 2466 416 2725 514 
Q 2984 613 3213 813 
L 1556 2509 
z
M 1997 2859 
L 3584 1234 
Q 3769 1513 3872 1830 
Q 3975 2147 3994 2503 
L 4575 2503 
Q 4538 2091 4375 1687 
Q 4213 1284 3922 891 
L 4794 0 
L 4006 0 
L 3559 459 
Q 3234 181 2878 45 
Q 2522 -91 2113 -91 
Q 1359 -91 881 339 
Q 403 769 403 1441 
Q 403 1841 612 2192 
Q 822 2544 1241 2853 
Q 1091 3050 1012 3245 
Q 934 3441 934 3628 
Q 934 4134 1281 4442 
Q 1628 4750 2203 4750 
Q 2463 4750 2720 4694 
Q 2978 4638 3244 4525 
L 3244 3956 
Q 2972 4103 2725 4179 
Q 2478 4256 2266 4256 
Q 1938 4256 1733 4082 
Q 1528 3909 1528 3634 
Q 1528 3475 1620 3314 
Q 1713 3153 1997 2859 
z
" transform="scale(0.015625)"/>
       </defs>
       <use xlink:href="#DejaVuSans-55"/>
       <use xlink:href="#DejaVuSans-73" x="73.193359"/>
       <use xlink:href="#DejaVuSans-65" x="125.292969"/>
       <use xlink:href="#DejaVuSans-72" x="186.816406"/>
       <use xlink:href="#DejaVuSans-20" x="227.929688"/>
       <use xlink:href="#DejaVuSans-45" x="259.716797"/>
       <use xlink:href="#DejaVuSans-78" x="322.900391"/>
       <use xlink:href="#DejaVuSans-70" x="382.080078"/>
       <use xlink:href="#DejaVuSans-65" x="445.556641"/>
       <use xlink:href="#DejaVuSans-72" x="507.080078"/>
       <use xlink:href="#DejaVuSans-69" x="548.193359"/>
       <use xlink:href="#DejaVuSans-65" x="575.976562"/>
       <use xlink:href="#DejaVuSans-6e" x="637.5"/>
       <use xlink:href="#DejaVuSans-63" x="700.878906"/>
       <use xlink:href="#DejaVuSans-65" x="755.859375"/>
       <use xlink:href="#DejaVuSans-20" x="817.382812"/>
       <use xlink:href="#DejaVuSans-26" x="849.169922"/>
       <use xlink:href="#DejaVuSans-20" x="927.148438"/>
       <use xlink:href="#DejaVuSans-49" x="958.935547"/>
       <use xlink:href="#DejaVuSans-6e" x="988.427734"/>
       <use xlink:href="#DejaVuSans-74" x="1051.806641"/>
       <use xlink:href="#DejaVuSans-65" x="1091.015625"/>
       <use xlink:href="#DejaVuSans-72" x="1152.539062"/>
       <use xlink:href="#DejaVuSans-61" x="1193.652344"/>
       <use xlink:href="#DejaVuSans-63" x="1254.931641"/>
       <use xlink:href="#DejaVuSans-74" x="1309.912109"/>
       <use xlink:href="#DejaVuSans-69" x="1349.121094"/>
       <use xlink:href="#DejaVuSans-6f" x="1376.904297"/>
       <use xlink:href="#DejaVuSans-6e" x="1438.085938"/>
      </g>
     </g>
    </g>
    <g id="xtick_5">
     <g id="line2d_5">
      <g>
       <use xlink:href="#m0a0739ba31" x="522.905909" y="501.915499" style="stroke: #000000; stroke-width: 0.8"/>
      </g>
     </g>
     <g id="text_5">
      <!-- Infrastructure -->
      <g transform="translate(443.144265 594.920897) rotate(-45) scale(0.16 -0.16)">
       <defs>
        <path id="DejaVuSans-66" d="M 2375 4863 
L 2375 4384 
L 1825 4384 
Q 1516 4384 1395 4259 
Q 1275 4134 1275 3809 
L 1275 3500 
L 2222 3500 
L 2222 3053 
L 1275 3053 
L 1275 0 
L 697 0 
L 697 3053 
L 147 3053 
L 147 3500 
L 697 3500 
L 697 3744 
Q 697 4328 969 4595 
Q 1241 4863 1831 4863 
L 2375 4863 
z
" transform="scale(0.015625)"/>
       </defs>
       <use xlink:href="#DejaVuSans-49"/>
       <use xlink:href="#DejaVuSans-6e" x="29.492188"/>
       <use xlink:href="#DejaVuSans-66" x="92.871094"/>
       <use xlink:href="#DejaVuSans-72" x="128.076172"/>
       <use xlink:href="#DejaVuSans-61" x="169.189453"/>
       <use xlink:href="#DejaVuSans-73" x="230.46875"/>
       <use xlink:href="#DejaVuSans-74" x="282.568359"/>
       <use xlink:href="#DejaVuSans-72" x="321.777344"/>
       <use xlink:href="#DejaVuSans-75" x="362.890625"/>
       <use xlink:href="#DejaVuSans-63" x="426.269531"/>
       <use xlink:href="#DejaVuSans-74" x="481.25"/>
       <use xlink:href="#DejaVuSans-75" x="520.458984"/>
       <use xlink:href="#DejaVuSans-72" x="583.837891"/>
       <use xlink:href="#DejaVuSans-65" x="622.701172"/>
      </g>
     </g>
    </g>
    <g id="xtick_6">
     <g id="line2d_6">
      <g>
       <use xlink:href="#m0a0739ba31" x="612.351709" y="501.915499" style="stroke: #000000; stroke-width: 0.8"/>
      </g>
     </g>
     <g id="text_6">
      <!-- Wallet -->
      <g transform="translate(574.917476 552.593485) rotate(-45) scale(0.16 -0.16)">
       <defs>
        <path id="DejaVuSans-57" d="M 213 4666 
L 850 4666 
L 1831 722 
L 2809 4666 
L 3519 4666 
L 4500 722 
L 5478 4666 
L 6119 4666 
L 4947 0 
L 4153 0 
L 3169 4050 
L 2175 0 
L 1381 0 
L 213 4666 
z
" transform="scale(0.015625)"/>
       </defs>
       <use xlink:href="#DejaVuSans-57"/>
       <use xlink:href="#DejaVuSans-61" x="92.501953"/>
       <use xlink:href="#DejaVuSans-6c" x="153.78125"/>
       <use xlink:href="#DejaVuSans-6c" x="181.564453"/>
       <use xlink:href="#DejaVuSans-65" x="209.347656"/>
       <use xlink:href="#DejaVuSans-74" x="270.871094"/>
      </g>
     </g>
    </g>
    <g id="xtick_7">
     <g id="line2d_7">
      <g>
       <use xlink:href="#m0a0739ba31" x="701.797509" y="501.915499" style="stroke: #000000; stroke-width: 0.8"/>
      </g>
     </g>
     <g id="text_7">
      <!-- Development &amp; Maintenance -->
      <g transform="translate(534.404121 682.55264) rotate(-45) scale(0.16 -0.16)">
       <defs>
        <path id="DejaVuSans-76" d="M 191 3500 
L 800 3500 
L 1894 563 
L 2988 3500 
L 3597 3500 
L 2284 0 
L 1503 0 
L 191 3500 
z
" transform="scale(0.015625)"/>
        <path id="DejaVuSans-4d" d="M 628 4666 
L 1569 4666 
L 2759 1491 
L 3956 4666 
L 4897 4666 
L 4897 0 
L 4281 0 
L 4281 4097 
L 3078 897 
L 2444 897 
L 1241 4097 
L 1241 0 
L 628 0 
L 628 4666 
z
" transform="scale(0.015625)"/>
       </defs>
       <use xlink:href="#DejaVuSans-44"/>
       <use xlink:href="#DejaVuSans-65" x="77.001953"/>
       <use xlink:href="#DejaVuSans-76" x="138.525391"/>
       <use xlink:href="#DejaVuSans-65" x="197.705078"/>
       <use xlink:href="#DejaVuSans-6c" x="259.228516"/>
       <use xlink:href="#DejaVuSans-6f" x="287.011719"/>
       <use xlink:href="#DejaVuSans-70" x="348.193359"/>
       <use xlink:href="#DejaVuSans-6d" x="411.669922"/>
       <use xlink:href="#DejaVuSans-65" x="509.082031"/>
       <use xlink:href="#DejaVuSans-6e" x="570.605469"/>
       <use xlink:href="#DejaVuSans-74" x="633.984375"/>
       <use xlink:href="#DejaVuSans-20" x="673.193359"/>
       <use xlink:href="#DejaVuSans-26" x="704.980469"/>
       <use xlink:href="#DejaVuSans-20" x="782.958984"/>
       <use xlink:href="#DejaVuSans-4d" x="814.746094"/>
       <use xlink:href="#DejaVuSans-61" x="901.025391"/>
       <use xlink:href="#DejaVuSans-69" x="962.304688"/>
       <use xlink:href="#DejaVuSans-6e" x="990.087891"/>
       <use xlink:href="#DejaVuSans-74" x="1053.466797"/>
       <use xlink:href="#DejaVuSans-65" x="1092.675781"/>
       <use xlink:href="#DejaVuSans-6e" x="1154.199219"/>
       <use xlink:href="#DejaVuSans-61" x="1217.578125"/>
       <use xlink:href="#DejaVuSans-6e" x="1278.857422"/>
       <use xlink:href="#DejaVuSans-63" x="1342.236328"/>
       <use xlink:href="#DejaVuSans-65" x="1397.216797"/>
      </g>
     </g>
    </g>
    <g id="xtick_8">
     <g id="line2d_8">
      <g>
       <use xlink:href="#m0a0739ba31" x="791.243309" y="501.915499" style="stroke: #000000; stroke-width: 0.8"/>
      </g>
     </g>
     <g id="text_8">
      <!-- Security and Data Integrity -->
      <g transform="translate(635.331567 671.070994) rotate(-45) scale(0.16 -0.16)">
       <defs>
        <path id="DejaVuSans-53" d="M 3425 4513 
L 3425 3897 
Q 3066 4069 2747 4153 
Q 2428 4238 2131 4238 
Q 1616 4238 1336 4038 
Q 1056 3838 1056 3469 
Q 1056 3159 1242 3001 
Q 1428 2844 1947 2747 
L 2328 2669 
Q 3034 2534 3370 2195 
Q 3706 1856 3706 1288 
Q 3706 609 3251 259 
Q 2797 -91 1919 -91 
Q 1588 -91 1214 -16 
Q 841 59 441 206 
L 441 856 
Q 825 641 1194 531 
Q 1563 422 1919 422 
Q 2459 422 2753 634 
Q 3047 847 3047 1241 
Q 3047 1584 2836 1778 
Q 2625 1972 2144 2069 
L 1759 2144 
Q 1053 2284 737 2584 
Q 422 2884 422 3419 
Q 422 4038 858 4394 
Q 1294 4750 2059 4750 
Q 2388 4750 2728 4690 
Q 3069 4631 3425 4513 
z
" transform="scale(0.015625)"/>
        <path id="DejaVuSans-64" d="M 2906 2969 
L 2906 4863 
L 3481 4863 
L 3481 0 
L 2906 0 
L 2906 525 
Q 2725 213 2448 61 
Q 2172 -91 1784 -91 
Q 1150 -91 751 415 
Q 353 922 353 1747 
Q 353 2572 751 3078 
Q 1150 3584 1784 3584 
Q 2172 3584 2448 3432 
Q 2725 3281 2906 2969 
z
M 947 1747 
Q 947 1113 1208 752 
Q 1469 391 1925 391 
Q 2381 391 2643 752 
Q 2906 1113 2906 1747 
Q 2906 2381 2643 2742 
Q 2381 3103 1925 3103 
Q 1469 3103 1208 2742 
Q 947 2381 947 1747 
z
" transform="scale(0.015625)"/>
       </defs>
       <use xlink:href="#DejaVuSans-53"/>
       <use xlink:href="#DejaVuSans-65" x="63.476562"/>
       <use xlink:href="#DejaVuSans-63" x="125"/>
       <use xlink:href="#DejaVuSans-75" x="179.980469"/>
       <use xlink:href="#DejaVuSans-72" x="243.359375"/>
       <use xlink:href="#DejaVuSans-69" x="284.472656"/>
       <use xlink:href="#DejaVuSans-74" x="312.255859"/>
       <use xlink:href="#DejaVuSans-79" x="351.464844"/>
       <use xlink:href="#DejaVuSans-20" x="410.644531"/>
       <use xlink:href="#DejaVuSans-61" x="442.431641"/>
       <use xlink:href="#DejaVuSans-6e" x="503.710938"/>
       <use xlink:href="#DejaVuSans-64" x="567.089844"/>
       <use xlink:href="#DejaVuSans-20" x="630.566406"/>
       <use xlink:href="#DejaVuSans-44" x="662.353516"/>
       <use xlink:href="#DejaVuSans-61" x="739.355469"/>
       <use xlink:href="#DejaVuSans-74" x="800.634766"/>
       <use xlink:href="#DejaVuSans-61" x="839.84375"/>
       <use xlink:href="#DejaVuSans-20" x="901.123047"/>
       <use xlink:href="#DejaVuSans-49" x="932.910156"/>
       <use xlink:href="#DejaVuSans-6e" x="962.402344"/>
       <use xlink:href="#DejaVuSans-74" x="1025.78125"/>
       <use xlink:href="#DejaVuSans-65" x="1064.990234"/>
       <use xlink:href="#DejaVuSans-67" x="1126.513672"/>
       <use xlink:href="#DejaVuSans-72" x="1189.990234"/>
       <use xlink:href="#DejaVuSans-69" x="1231.103516"/>
       <use xlink:href="#DejaVuSans-74" x="1258.886719"/>
       <use xlink:href="#DejaVuSans-79" x="1298.095703"/>
      </g>
     </g>
    </g>
    <g id="xtick_9">
     <g id="line2d_9">
      <g>
       <use xlink:href="#m0a0739ba31" x="880.689108" y="501.915499" style="stroke: #000000; stroke-width: 0.8"/>
      </g>
     </g>
     <g id="text_9">
      <!-- Transaction -->
      <g transform="translate(813.621798 582.226562) rotate(-45) scale(0.16 -0.16)">
       <defs>
        <path id="DejaVuSans-54" d="M -19 4666 
L 3928 4666 
L 3928 4134 
L 2272 4134 
L 2272 0 
L 1638 0 
L 1638 4134 
L -19 4134 
L -19 4666 
z
" transform="scale(0.015625)"/>
       </defs>
       <use xlink:href="#DejaVuSans-54"/>
       <use xlink:href="#DejaVuSans-72" x="46.333984"/>
       <use xlink:href="#DejaVuSans-61" x="87.447266"/>
       <use xlink:href="#DejaVuSans-6e" x="148.726562"/>
       <use xlink:href="#DejaVuSans-73" x="212.105469"/>
       <use xlink:href="#DejaVuSans-61" x="264.205078"/>
       <use xlink:href="#DejaVuSans-63" x="325.484375"/>
       <use xlink:href="#DejaVuSans-74" x="380.464844"/>
       <use xlink:href="#DejaVuSans-69" x="419.673828"/>
       <use xlink:href="#DejaVuSans-6f" x="447.457031"/>
       <use xlink:href="#DejaVuSans-6e" x="508.638672"/>
      </g>
     </g>
    </g>
    <g id="xtick_10">
     <g id="line2d_10">
      <g>
       <use xlink:href="#m0a0739ba31" x="970.134908" y="501.915499" style="stroke: #000000; stroke-width: 0.8"/>
      </g>
     </g>
     <g id="text_10">
      <!-- Networking -->
      <g transform="translate(903.048152 582.246008) rotate(-45) scale(0.16 -0.16)">
       <defs>
        <path id="DejaVuSans-4e" d="M 628 4666 
L 1478 4666 
L 3547 763 
L 3547 4666 
L 4159 4666 
L 4159 0 
L 3309 0 
L 1241 3903 
L 1241 0 
L 628 0 
L 628 4666 
z
" transform="scale(0.015625)"/>
        <path id="DejaVuSans-77" d="M 269 3500 
L 844 3500 
L 1563 769 
L 2278 3500 
L 2956 3500 
L 3675 769 
L 4391 3500 
L 4966 3500 
L 4050 0 
L 3372 0 
L 2619 2869 
L 1863 0 
L 1184 0 
L 269 3500 
z
" transform="scale(0.015625)"/>
        <path id="DejaVuSans-6b" d="M 581 4863 
L 1159 4863 
L 1159 1991 
L 2875 3500 
L 3609 3500 
L 1753 1863 
L 3688 0 
L 2938 0 
L 1159 1709 
L 1159 0 
L 581 0 
L 581 4863 
z
" transform="scale(0.015625)"/>
       </defs>
       <use xlink:href="#DejaVuSans-4e"/>
       <use xlink:href="#DejaVuSans-65" x="74.804688"/>
       <use xlink:href="#DejaVuSans-74" x="136.328125"/>
       <use xlink:href="#DejaVuSans-77" x="175.537109"/>
       <use xlink:href="#DejaVuSans-6f" x="257.324219"/>
       <use xlink:href="#DejaVuSans-72" x="318.505859"/>
       <use xlink:href="#DejaVuSans-6b" x="359.619141"/>
       <use xlink:href="#DejaVuSans-69" x="417.529297"/>
       <use xlink:href="#DejaVuSans-6e" x="445.3125"/>
       <use xlink:href="#DejaVuSans-67" x="508.691406"/>
      </g>
     </g>
    </g>
    <g id="xtick_11">
     <g id="line2d_11">
      <g>
       <use xlink:href="#m0a0739ba31" x="1059.580708" y="501.915499" style="stroke: #000000; stroke-width: 0.8"/>
      </g>
     </g>
     <g id="text_11">
      <!-- Mechanisms -->
      <g transform="translate(987.059836 587.680123) rotate(-45) scale(0.16 -0.16)">
       <defs>
        <path id="DejaVuSans-68" d="M 3513 2113 
L 3513 0 
L 2938 0 
L 2938 2094 
Q 2938 2591 2744 2837 
Q 2550 3084 2163 3084 
Q 1697 3084 1428 2787 
Q 1159 2491 1159 1978 
L 1159 0 
L 581 0 
L 581 4863 
L 1159 4863 
L 1159 2956 
Q 1366 3272 1645 3428 
Q 1925 3584 2291 3584 
Q 2894 3584 3203 3211 
Q 3513 2838 3513 2113 
z
" transform="scale(0.015625)"/>
       </defs>
       <use xlink:href="#DejaVuSans-4d"/>
       <use xlink:href="#DejaVuSans-65" x="86.279297"/>
       <use xlink:href="#DejaVuSans-63" x="147.802734"/>
       <use xlink:href="#DejaVuSans-68" x="202.783203"/>
       <use xlink:href="#DejaVuSans-61" x="266.162109"/>
       <use xlink:href="#DejaVuSans-6e" x="327.441406"/>
       <use xlink:href="#DejaVuSans-69" x="390.820312"/>
       <use xlink:href="#DejaVuSans-73" x="418.603516"/>
       <use xlink:href="#DejaVuSans-6d" x="470.703125"/>
       <use xlink:href="#DejaVuSans-73" x="568.115234"/>
      </g>
     </g>
    </g>
    <g id="text_12">
     <!-- Topic Category -->
     <g transform="translate(553.142959 705.896113) scale(0.16 -0.16)">
      <use xlink:href="#DejaVuSans-54"/>
      <use xlink:href="#DejaVuSans-6f" x="44.083984"/>
      <use xlink:href="#DejaVuSans-70" x="105.265625"/>
      <use xlink:href="#DejaVuSans-69" x="168.742188"/>
      <use xlink:href="#DejaVuSans-63" x="196.525391"/>
      <use xlink:href="#DejaVuSans-20" x="251.505859"/>
      <use xlink:href="#DejaVuSans-43" x="283.292969"/>
      <use xlink:href="#DejaVuSans-61" x="353.117188"/>
      <use xlink:href="#DejaVuSans-74" x="414.396484"/>
      <use xlink:href="#DejaVuSans-65" x="453.605469"/>
      <use xlink:href="#DejaVuSans-67" x="515.128906"/>
      <use xlink:href="#DejaVuSans-6f" x="578.605469"/>
      <use xlink:href="#DejaVuSans-72" x="639.787109"/>
      <use xlink:href="#DejaVuSans-79" x="680.900391"/>
     </g>
    </g>
   </g>
   <g id="matplotlib.axis_2">
    <g id="ytick_1">
     <g id="line2d_12">
      <path d="M 83.503418 501.915499 
L 1141.2 501.915499 
" clip-path="url(#p68ac61a3fd)" style="fill: none; stroke-dasharray: 2.96,1.28; stroke-dashoffset: 0; stroke: #b0b0b0; stroke-opacity: 0.7; stroke-width: 0.8"/>
     </g>
     <g id="line2d_13">
      <defs>
       <path id="m33d75e698a" d="M 0 0 
L -3.5 0 
" style="stroke: #000000; stroke-width: 0.8"/>
      </defs>
      <g>
       <use xlink:href="#m33d75e698a" x="83.503418" y="501.915499" style="stroke: #000000; stroke-width: 0.8"/>
      </g>
     </g>
     <g id="text_13">
      <!-- 0% -->
      <g transform="translate(51.120918 507.994249) scale(0.16 -0.16)">
       <defs>
        <path id="DejaVuSans-30" d="M 2034 4250 
Q 1547 4250 1301 3770 
Q 1056 3291 1056 2328 
Q 1056 1369 1301 889 
Q 1547 409 2034 409 
Q 2525 409 2770 889 
Q 3016 1369 3016 2328 
Q 3016 3291 2770 3770 
Q 2525 4250 2034 4250 
z
M 2034 4750 
Q 2819 4750 3233 4129 
Q 3647 3509 3647 2328 
Q 3647 1150 3233 529 
Q 2819 -91 2034 -91 
Q 1250 -91 836 529 
Q 422 1150 422 2328 
Q 422 3509 836 4129 
Q 1250 4750 2034 4750 
z
" transform="scale(0.015625)"/>
        <path id="DejaVuSans-25" d="M 4653 2053 
Q 4381 2053 4226 1822 
Q 4072 1591 4072 1178 
Q 4072 772 4226 539 
Q 4381 306 4653 306 
Q 4919 306 5073 539 
Q 5228 772 5228 1178 
Q 5228 1588 5073 1820 
Q 4919 2053 4653 2053 
z
M 4653 2450 
Q 5147 2450 5437 2106 
Q 5728 1763 5728 1178 
Q 5728 594 5436 251 
Q 5144 -91 4653 -91 
Q 4153 -91 3862 251 
Q 3572 594 3572 1178 
Q 3572 1766 3864 2108 
Q 4156 2450 4653 2450 
z
M 1428 4353 
Q 1159 4353 1004 4120 
Q 850 3888 850 3481 
Q 850 3069 1003 2837 
Q 1156 2606 1428 2606 
Q 1700 2606 1854 2837 
Q 2009 3069 2009 3481 
Q 2009 3884 1853 4118 
Q 1697 4353 1428 4353 
z
M 4250 4750 
L 4750 4750 
L 1831 -91 
L 1331 -91 
L 4250 4750 
z
M 1428 4750 
Q 1922 4750 2215 4408 
Q 2509 4066 2509 3481 
Q 2509 2891 2217 2550 
Q 1925 2209 1428 2209 
Q 931 2209 642 2551 
Q 353 2894 353 3481 
Q 353 4063 643 4406 
Q 934 4750 1428 4750 
z
" transform="scale(0.015625)"/>
       </defs>
       <use xlink:href="#DejaVuSans-30"/>
       <use xlink:href="#DejaVuSans-25" x="63.623047"/>
      </g>
     </g>
    </g>
    <g id="ytick_2">
     <g id="line2d_14">
      <path d="M 83.503418 404.936244 
L 1141.2 404.936244 
" clip-path="url(#p68ac61a3fd)" style="fill: none; stroke-dasharray: 2.96,1.28; stroke-dashoffset: 0; stroke: #b0b0b0; stroke-opacity: 0.7; stroke-width: 0.8"/>
     </g>
     <g id="line2d_15">
      <g>
       <use xlink:href="#m33d75e698a" x="83.503418" y="404.936244" style="stroke: #000000; stroke-width: 0.8"/>
      </g>
     </g>
     <g id="text_14">
      <!-- 20% -->
      <g transform="translate(40.940918 411.014994) scale(0.16 -0.16)">
       <defs>
        <path id="DejaVuSans-32" d="M 1228 531 
L 3431 531 
L 3431 0 
L 469 0 
L 469 531 
Q 828 903 1448 1529 
Q 2069 2156 2228 2338 
Q 2531 2678 2651 2914 
Q 2772 3150 2772 3378 
Q 2772 3750 2511 3984 
Q 2250 4219 1831 4219 
Q 1534 4219 1204 4116 
Q 875 4013 500 3803 
L 500 4441 
Q 881 4594 1212 4672 
Q 1544 4750 1819 4750 
Q 2544 4750 2975 4387 
Q 3406 4025 3406 3419 
Q 3406 3131 3298 2873 
Q 3191 2616 2906 2266 
Q 2828 2175 2409 1742 
Q 1991 1309 1228 531 
z
" transform="scale(0.015625)"/>
       </defs>
       <use xlink:href="#DejaVuSans-32"/>
       <use xlink:href="#DejaVuSans-30" x="63.623047"/>
       <use xlink:href="#DejaVuSans-25" x="127.246094"/>
      </g>
     </g>
    </g>
    <g id="ytick_3">
     <g id="line2d_16">
      <path d="M 83.503418 307.956989 
L 1141.2 307.956989 
" clip-path="url(#p68ac61a3fd)" style="fill: none; stroke-dasharray: 2.96,1.28; stroke-dashoffset: 0; stroke: #b0b0b0; stroke-opacity: 0.7; stroke-width: 0.8"/>
     </g>
     <g id="line2d_17">
      <g>
       <use xlink:href="#m33d75e698a" x="83.503418" y="307.956989" style="stroke: #000000; stroke-width: 0.8"/>
      </g>
     </g>
     <g id="text_15">
      <!-- 40% -->
      <g transform="translate(40.940918 314.035739) scale(0.16 -0.16)">
       <defs>
        <path id="DejaVuSans-34" d="M 2419 4116 
L 825 1625 
L 2419 1625 
L 2419 4116 
z
M 2253 4666 
L 3047 4666 
L 3047 1625 
L 3713 1625 
L 3713 1100 
L 3047 1100 
L 3047 0 
L 2419 0 
L 2419 1100 
L 313 1100 
L 313 1709 
L 2253 4666 
z
" transform="scale(0.015625)"/>
       </defs>
       <use xlink:href="#DejaVuSans-34"/>
       <use xlink:href="#DejaVuSans-30" x="63.623047"/>
       <use xlink:href="#DejaVuSans-25" x="127.246094"/>
      </g>
     </g>
    </g>
    <g id="ytick_4">
     <g id="line2d_18">
      <path d="M 83.503418 210.977734 
L 1141.2 210.977734 
" clip-path="url(#p68ac61a3fd)" style="fill: none; stroke-dasharray: 2.96,1.28; stroke-dashoffset: 0; stroke: #b0b0b0; stroke-opacity: 0.7; stroke-width: 0.8"/>
     </g>
     <g id="line2d_19">
      <g>
       <use xlink:href="#m33d75e698a" x="83.503418" y="210.977734" style="stroke: #000000; stroke-width: 0.8"/>
      </g>
     </g>
     <g id="text_16">
      <!-- 60% -->
      <g transform="translate(40.940918 217.056484) scale(0.16 -0.16)">
       <defs>
        <path id="DejaVuSans-36" d="M 2113 2584 
Q 1688 2584 1439 2293 
Q 1191 2003 1191 1497 
Q 1191 994 1439 701 
Q 1688 409 2113 409 
Q 2538 409 2786 701 
Q 3034 994 3034 1497 
Q 3034 2003 2786 2293 
Q 2538 2584 2113 2584 
z
M 3366 4563 
L 3366 3988 
Q 3128 4100 2886 4159 
Q 2644 4219 2406 4219 
Q 1781 4219 1451 3797 
Q 1122 3375 1075 2522 
Q 1259 2794 1537 2939 
Q 1816 3084 2150 3084 
Q 2853 3084 3261 2657 
Q 3669 2231 3669 1497 
Q 3669 778 3244 343 
Q 2819 -91 2113 -91 
Q 1303 -91 875 529 
Q 447 1150 447 2328 
Q 447 3434 972 4092 
Q 1497 4750 2381 4750 
Q 2619 4750 2861 4703 
Q 3103 4656 3366 4563 
z
" transform="scale(0.015625)"/>
       </defs>
       <use xlink:href="#DejaVuSans-36"/>
       <use xlink:href="#DejaVuSans-30" x="63.623047"/>
       <use xlink:href="#DejaVuSans-25" x="127.246094"/>
      </g>
     </g>
    </g>
    <g id="ytick_5">
     <g id="line2d_20">
      <path d="M 83.503418 113.998478 
L 1141.2 113.998478 
" clip-path="url(#p68ac61a3fd)" style="fill: none; stroke-dasharray: 2.96,1.28; stroke-dashoffset: 0; stroke: #b0b0b0; stroke-opacity: 0.7; stroke-width: 0.8"/>
     </g>
     <g id="line2d_21">
      <g>
       <use xlink:href="#m33d75e698a" x="83.503418" y="113.998478" style="stroke: #000000; stroke-width: 0.8"/>
      </g>
     </g>
     <g id="text_17">
      <!-- 80% -->
      <g transform="translate(40.940918 120.077228) scale(0.16 -0.16)">
       <defs>
        <path id="DejaVuSans-38" d="M 2034 2216 
Q 1584 2216 1326 1975 
Q 1069 1734 1069 1313 
Q 1069 891 1326 650 
Q 1584 409 2034 409 
Q 2484 409 2743 651 
Q 3003 894 3003 1313 
Q 3003 1734 2745 1975 
Q 2488 2216 2034 2216 
z
M 1403 2484 
Q 997 2584 770 2862 
Q 544 3141 544 3541 
Q 544 4100 942 4425 
Q 1341 4750 2034 4750 
Q 2731 4750 3128 4425 
Q 3525 4100 3525 3541 
Q 3525 3141 3298 2862 
Q 3072 2584 2669 2484 
Q 3125 2378 3379 2068 
Q 3634 1759 3634 1313 
Q 3634 634 3220 271 
Q 2806 -91 2034 -91 
Q 1263 -91 848 271 
Q 434 634 434 1313 
Q 434 1759 690 2068 
Q 947 2378 1403 2484 
z
M 1172 3481 
Q 1172 3119 1398 2916 
Q 1625 2713 2034 2713 
Q 2441 2713 2670 2916 
Q 2900 3119 2900 3481 
Q 2900 3844 2670 4047 
Q 2441 4250 2034 4250 
Q 1625 4250 1398 4047 
Q 1172 3844 1172 3481 
z
" transform="scale(0.015625)"/>
       </defs>
       <use xlink:href="#DejaVuSans-38"/>
       <use xlink:href="#DejaVuSans-30" x="63.623047"/>
       <use xlink:href="#DejaVuSans-25" x="127.246094"/>
      </g>
     </g>
    </g>
    <g id="text_18">
     <!-- % Of Issues -->
     <g transform="translate(33.613418 311.819892) rotate(-90) scale(0.16 -0.16)">
      <defs>
       <path id="DejaVuSans-4f" d="M 2522 4238 
Q 1834 4238 1429 3725 
Q 1025 3213 1025 2328 
Q 1025 1447 1429 934 
Q 1834 422 2522 422 
Q 3209 422 3611 934 
Q 4013 1447 4013 2328 
Q 4013 3213 3611 3725 
Q 3209 4238 2522 4238 
z
M 2522 4750 
Q 3503 4750 4090 4092 
Q 4678 3434 4678 2328 
Q 4678 1225 4090 567 
Q 3503 -91 2522 -91 
Q 1538 -91 948 565 
Q 359 1222 359 2328 
Q 359 3434 948 4092 
Q 1538 4750 2522 4750 
z
" transform="scale(0.015625)"/>
      </defs>
      <use xlink:href="#DejaVuSans-25"/>
      <use xlink:href="#DejaVuSans-20" x="95.019531"/>
      <use xlink:href="#DejaVuSans-4f" x="126.806641"/>
      <use xlink:href="#DejaVuSans-66" x="205.517578"/>
      <use xlink:href="#DejaVuSans-20" x="240.722656"/>
      <use xlink:href="#DejaVuSans-49" x="272.509766"/>
      <use xlink:href="#DejaVuSans-73" x="302.001953"/>
      <use xlink:href="#DejaVuSans-73" x="354.101562"/>
      <use xlink:href="#DejaVuSans-75" x="406.201172"/>
      <use xlink:href="#DejaVuSans-65" x="469.580078"/>
      <use xlink:href="#DejaVuSans-73" x="531.103516"/>
     </g>
    </g>
   </g>
   <g id="patch_36">
    <path d="M 83.503418 501.915499 
L 83.503418 28.414286 
" style="fill: none; stroke: #000000; stroke-width: 0.8; stroke-linejoin: miter; stroke-linecap: square"/>
   </g>
   <g id="patch_37">
    <path d="M 1141.2 501.915499 
L 1141.2 28.414286 
" style="fill: none; stroke: #000000; stroke-width: 0.8; stroke-linejoin: miter; stroke-linecap: square"/>
   </g>
   <g id="patch_38">
    <path d="M 83.503418 501.915499 
L 1141.2 501.915499 
" style="fill: none; stroke: #000000; stroke-width: 0.8; stroke-linejoin: miter; stroke-linecap: square"/>
   </g>
   <g id="text_19">
    <!-- 15267 -->
    <g transform="translate(147.176261 93.784661) rotate(-90) scale(0.16 -0.16)">
     <defs>
      <path id="DejaVuSans-31" d="M 794 531 
L 1825 531 
L 1825 4091 
L 703 3866 
L 703 4441 
L 1819 4666 
L 2450 4666 
L 2450 531 
L 3481 531 
L 3481 0 
L 794 0 
L 794 531 
z
" transform="scale(0.015625)"/>
      <path id="DejaVuSans-35" d="M 691 4666 
L 3169 4666 
L 3169 4134 
L 1269 4134 
L 1269 2991 
Q 1406 3038 1543 3061 
Q 1681 3084 1819 3084 
Q 2600 3084 3056 2656 
Q 3513 2228 3513 1497 
Q 3513 744 3044 326 
Q 2575 -91 1722 -91 
Q 1428 -91 1123 -41 
Q 819 9 494 109 
L 494 744 
Q 775 591 1075 516 
Q 1375 441 1709 441 
Q 2250 441 2565 725 
Q 2881 1009 2881 1497 
Q 2881 1984 2565 2268 
Q 2250 2553 1709 2553 
Q 1456 2553 1204 2497 
Q 953 2441 691 2322 
L 691 4666 
z
" transform="scale(0.015625)"/>
      <path id="DejaVuSans-37" d="M 525 4666 
L 3525 4666 
L 3525 4397 
L 1831 0 
L 1172 0 
L 2766 4134 
L 525 4134 
L 525 4666 
z
" transform="scale(0.015625)"/>
     </defs>
     <use xlink:href="#DejaVuSans-31"/>
     <use xlink:href="#DejaVuSans-35" x="63.623047"/>
     <use xlink:href="#DejaVuSans-32" x="127.246094"/>
     <use xlink:href="#DejaVuSans-36" x="190.869141"/>
     <use xlink:href="#DejaVuSans-37" x="254.492188"/>
    </g>
   </g>
   <g id="text_20">
    <!-- 23208 -->
    <g transform="translate(236.62206 80.643972) rotate(-90) scale(0.16 -0.16)">
     <defs>
      <path id="DejaVuSans-33" d="M 2597 2516 
Q 3050 2419 3304 2112 
Q 3559 1806 3559 1356 
Q 3559 666 3084 287 
Q 2609 -91 1734 -91 
Q 1441 -91 1130 -33 
Q 819 25 488 141 
L 488 750 
Q 750 597 1062 519 
Q 1375 441 1716 441 
Q 2309 441 2620 675 
Q 2931 909 2931 1356 
Q 2931 1769 2642 2001 
Q 2353 2234 1838 2234 
L 1294 2234 
L 1294 2753 
L 1863 2753 
Q 2328 2753 2575 2939 
Q 2822 3125 2822 3475 
Q 2822 3834 2567 4026 
Q 2313 4219 1838 4219 
Q 1578 4219 1281 4162 
Q 984 4106 628 3988 
L 628 4550 
Q 988 4650 1302 4700 
Q 1616 4750 1894 4750 
Q 2613 4750 3031 4423 
Q 3450 4097 3450 3541 
Q 3450 3153 3228 2886 
Q 3006 2619 2597 2516 
z
" transform="scale(0.015625)"/>
     </defs>
     <use xlink:href="#DejaVuSans-32"/>
     <use xlink:href="#DejaVuSans-33" x="63.623047"/>
     <use xlink:href="#DejaVuSans-32" x="127.246094"/>
     <use xlink:href="#DejaVuSans-30" x="190.869141"/>
     <use xlink:href="#DejaVuSans-38" x="254.492188"/>
    </g>
   </g>
   <g id="text_21">
    <!-- 2743 -->
    <g transform="translate(326.06786 61.975465) rotate(-90) scale(0.16 -0.16)">
     <use xlink:href="#DejaVuSans-32"/>
     <use xlink:href="#DejaVuSans-37" x="63.623047"/>
     <use xlink:href="#DejaVuSans-34" x="127.246094"/>
     <use xlink:href="#DejaVuSans-33" x="190.869141"/>
    </g>
   </g>
   <g id="text_22">
    <!-- 143669 -->
    <g transform="translate(415.51366 74.728237) rotate(-90) scale(0.16 -0.16)">
     <defs>
      <path id="DejaVuSans-39" d="M 703 97 
L 703 672 
Q 941 559 1184 500 
Q 1428 441 1663 441 
Q 2288 441 2617 861 
Q 2947 1281 2994 2138 
Q 2813 1869 2534 1725 
Q 2256 1581 1919 1581 
Q 1219 1581 811 2004 
Q 403 2428 403 3163 
Q 403 3881 828 4315 
Q 1253 4750 1959 4750 
Q 2769 4750 3195 4129 
Q 3622 3509 3622 2328 
Q 3622 1225 3098 567 
Q 2575 -91 1691 -91 
Q 1453 -91 1209 -44 
Q 966 3 703 97 
z
M 1959 2075 
Q 2384 2075 2632 2365 
Q 2881 2656 2881 3163 
Q 2881 3666 2632 3958 
Q 2384 4250 1959 4250 
Q 1534 4250 1286 3958 
Q 1038 3666 1038 3163 
Q 1038 2656 1286 2365 
Q 1534 2075 1959 2075 
z
" transform="scale(0.015625)"/>
     </defs>
     <use xlink:href="#DejaVuSans-31"/>
     <use xlink:href="#DejaVuSans-34" x="63.623047"/>
     <use xlink:href="#DejaVuSans-33" x="127.246094"/>
     <use xlink:href="#DejaVuSans-36" x="190.869141"/>
     <use xlink:href="#DejaVuSans-36" x="254.492188"/>
     <use xlink:href="#DejaVuSans-39" x="318.115234"/>
    </g>
   </g>
   <g id="text_23">
    <!-- 63907 -->
    <g transform="translate(504.95946 78.558918) rotate(-90) scale(0.16 -0.16)">
     <use xlink:href="#DejaVuSans-36"/>
     <use xlink:href="#DejaVuSans-33" x="63.623047"/>
     <use xlink:href="#DejaVuSans-39" x="127.246094"/>
     <use xlink:href="#DejaVuSans-30" x="190.869141"/>
     <use xlink:href="#DejaVuSans-37" x="254.492188"/>
    </g>
   </g>
   <g id="text_24">
    <!-- 171544 -->
    <g transform="translate(594.405259 103.870503) rotate(-90) scale(0.16 -0.16)">
     <use xlink:href="#DejaVuSans-31"/>
     <use xlink:href="#DejaVuSans-37" x="63.623047"/>
     <use xlink:href="#DejaVuSans-31" x="127.246094"/>
     <use xlink:href="#DejaVuSans-35" x="190.869141"/>
     <use xlink:href="#DejaVuSans-34" x="254.492188"/>
     <use xlink:href="#DejaVuSans-34" x="318.115234"/>
    </g>
   </g>
   <g id="text_25">
    <!-- 200429 -->
    <g transform="translate(683.851059 66.921407) rotate(-90) scale(0.16 -0.16)">
     <use xlink:href="#DejaVuSans-32"/>
     <use xlink:href="#DejaVuSans-30" x="63.623047"/>
     <use xlink:href="#DejaVuSans-30" x="127.246094"/>
     <use xlink:href="#DejaVuSans-34" x="190.869141"/>
     <use xlink:href="#DejaVuSans-32" x="254.492188"/>
     <use xlink:href="#DejaVuSans-39" x="318.115234"/>
    </g>
   </g>
   <g id="text_26">
    <!-- 7898 -->
    <g transform="translate(773.296859 113.42296) rotate(-90) scale(0.16 -0.16)">
     <use xlink:href="#DejaVuSans-37"/>
     <use xlink:href="#DejaVuSans-38" x="63.623047"/>
     <use xlink:href="#DejaVuSans-39" x="127.246094"/>
     <use xlink:href="#DejaVuSans-38" x="190.869141"/>
    </g>
   </g>
   <g id="text_27">
    <!-- 12680 -->
    <g transform="translate(862.742658 93.639192) rotate(-90) scale(0.16 -0.16)">
     <use xlink:href="#DejaVuSans-31"/>
     <use xlink:href="#DejaVuSans-32" x="63.623047"/>
     <use xlink:href="#DejaVuSans-36" x="127.246094"/>
     <use xlink:href="#DejaVuSans-38" x="190.869141"/>
     <use xlink:href="#DejaVuSans-30" x="254.492188"/>
    </g>
   </g>
   <g id="text_28">
    <!-- 8252 -->
    <g transform="translate(952.188458 84.038245) rotate(-90) scale(0.16 -0.16)">
     <use xlink:href="#DejaVuSans-38"/>
     <use xlink:href="#DejaVuSans-32" x="63.623047"/>
     <use xlink:href="#DejaVuSans-35" x="127.246094"/>
     <use xlink:href="#DejaVuSans-32" x="190.869141"/>
    </g>
   </g>
   <g id="text_29">
    <!-- 4674 -->
    <g transform="translate(1041.634258 47.961963) rotate(-90) scale(0.16 -0.16)">
     <use xlink:href="#DejaVuSans-34"/>
     <use xlink:href="#DejaVuSans-36" x="63.623047"/>
     <use xlink:href="#DejaVuSans-37" x="127.246094"/>
     <use xlink:href="#DejaVuSans-34" x="190.869141"/>
    </g>
   </g>
   <g id="text_30">
    <!-- 2631 -->
    <g transform="translate(169.537711 429.090435) rotate(-90) scale(0.16 -0.16)">
     <use xlink:href="#DejaVuSans-32"/>
     <use xlink:href="#DejaVuSans-36" x="63.623047"/>
     <use xlink:href="#DejaVuSans-33" x="127.246094"/>
     <use xlink:href="#DejaVuSans-31" x="190.869141"/>
    </g>
   </g>
   <g id="text_31">
    <!-- 3060 -->
    <g transform="translate(258.98351 443.782792) rotate(-90) scale(0.16 -0.16)">
     <use xlink:href="#DejaVuSans-33"/>
     <use xlink:href="#DejaVuSans-30" x="63.623047"/>
     <use xlink:href="#DejaVuSans-36" x="127.246094"/>
     <use xlink:href="#DejaVuSans-30" x="190.869141"/>
    </g>
   </g>
   <g id="text_32">
    <!-- 262 -->
    <g transform="translate(348.42931 457.16593) rotate(-90) scale(0.16 -0.16)">
     <use xlink:href="#DejaVuSans-32"/>
     <use xlink:href="#DejaVuSans-36" x="63.623047"/>
     <use xlink:href="#DejaVuSans-32" x="127.246094"/>
    </g>
   </g>
   <g id="text_33">
    <!-- 17510 -->
    <g transform="translate(437.87511 447.225556) rotate(-90) scale(0.16 -0.16)">
     <use xlink:href="#DejaVuSans-31"/>
     <use xlink:href="#DejaVuSans-37" x="63.623047"/>
     <use xlink:href="#DejaVuSans-35" x="127.246094"/>
     <use xlink:href="#DejaVuSans-31" x="190.869141"/>
     <use xlink:href="#DejaVuSans-30" x="254.492188"/>
    </g>
   </g>
   <g id="text_34">
    <!-- 8353 -->
    <g transform="translate(527.320909 443.976751) rotate(-90) scale(0.16 -0.16)">
     <use xlink:href="#DejaVuSans-38"/>
     <use xlink:href="#DejaVuSans-33" x="63.623047"/>
     <use xlink:href="#DejaVuSans-35" x="127.246094"/>
     <use xlink:href="#DejaVuSans-33" x="190.869141"/>
    </g>
   </g>
   <g id="text_35">
    <!-- 31414 -->
    <g transform="translate(616.766709 426.568975) rotate(-90) scale(0.16 -0.16)">
     <use xlink:href="#DejaVuSans-33"/>
     <use xlink:href="#DejaVuSans-31" x="63.623047"/>
     <use xlink:href="#DejaVuSans-34" x="127.246094"/>
     <use xlink:href="#DejaVuSans-31" x="190.869141"/>
     <use xlink:href="#DejaVuSans-34" x="254.492188"/>
    </g>
   </g>
   <g id="text_36">
    <!-- 22012 -->
    <g transform="translate(706.212509 451.492643) rotate(-90) scale(0.16 -0.16)">
     <use xlink:href="#DejaVuSans-32"/>
     <use xlink:href="#DejaVuSans-32" x="63.623047"/>
     <use xlink:href="#DejaVuSans-30" x="127.246094"/>
     <use xlink:href="#DejaVuSans-31" x="190.869141"/>
     <use xlink:href="#DejaVuSans-32" x="254.492188"/>
    </g>
   </g>
   <g id="text_37">
    <!-- 1716 -->
    <g transform="translate(795.658309 415.173912) rotate(-90) scale(0.16 -0.16)">
     <use xlink:href="#DejaVuSans-31"/>
     <use xlink:href="#DejaVuSans-37" x="63.623047"/>
     <use xlink:href="#DejaVuSans-31" x="127.246094"/>
     <use xlink:href="#DejaVuSans-36" x="190.869141"/>
    </g>
   </g>
   <g id="text_38">
    <!-- 2106 -->
    <g transform="translate(885.104108 431.611896) rotate(-90) scale(0.16 -0.16)">
     <use xlink:href="#DejaVuSans-32"/>
     <use xlink:href="#DejaVuSans-31" x="63.623047"/>
     <use xlink:href="#DejaVuSans-30" x="127.246094"/>
     <use xlink:href="#DejaVuSans-36" x="190.869141"/>
    </g>
   </g>
   <g id="text_39">
    <!-- 1172 -->
    <g transform="translate(974.549908 440.000601) rotate(-90) scale(0.16 -0.16)">
     <use xlink:href="#DejaVuSans-31"/>
     <use xlink:href="#DejaVuSans-31" x="63.623047"/>
     <use xlink:href="#DejaVuSans-37" x="127.246094"/>
     <use xlink:href="#DejaVuSans-32" x="190.869141"/>
    </g>
   </g>
   <g id="text_40">
    <!-- 250 -->
    <g transform="translate(1063.995708 474.816154) rotate(-90) scale(0.16 -0.16)">
     <use xlink:href="#DejaVuSans-32"/>
     <use xlink:href="#DejaVuSans-35" x="63.623047"/>
     <use xlink:href="#DejaVuSans-30" x="127.246094"/>
    </g>
   </g>
   <g id="text_41">
    <!-- 375 -->
    <g transform="translate(191.899161 488.975125) rotate(-90) scale(0.16 -0.16)">
     <use xlink:href="#DejaVuSans-33"/>
     <use xlink:href="#DejaVuSans-37" x="63.623047"/>
     <use xlink:href="#DejaVuSans-35" x="127.246094"/>
    </g>
   </g>
   <g id="text_42">
    <!-- 638 -->
    <g transform="translate(281.34496 487.423457) rotate(-90) scale(0.16 -0.16)">
     <use xlink:href="#DejaVuSans-36"/>
     <use xlink:href="#DejaVuSans-33" x="63.623047"/>
     <use xlink:href="#DejaVuSans-38" x="127.246094"/>
    </g>
   </g>
   <g id="text_43">
    <!-- 39 -->
    <g transform="translate(370.79076 492.708827) rotate(-90) scale(0.16 -0.16)">
     <use xlink:href="#DejaVuSans-33"/>
     <use xlink:href="#DejaVuSans-39" x="63.623047"/>
    </g>
   </g>
   <g id="text_44">
    <!-- 3051 -->
    <g transform="translate(460.23656 489.896428) rotate(-90) scale(0.16 -0.16)">
     <use xlink:href="#DejaVuSans-33"/>
     <use xlink:href="#DejaVuSans-30" x="63.623047"/>
     <use xlink:href="#DejaVuSans-35" x="127.246094"/>
     <use xlink:href="#DejaVuSans-31" x="190.869141"/>
    </g>
   </g>
   <g id="text_45">
    <!-- 1457 -->
    <g transform="translate(549.682359 489.314553) rotate(-90) scale(0.16 -0.16)">
     <use xlink:href="#DejaVuSans-31"/>
     <use xlink:href="#DejaVuSans-34" x="63.623047"/>
     <use xlink:href="#DejaVuSans-35" x="127.246094"/>
     <use xlink:href="#DejaVuSans-37" x="190.869141"/>
    </g>
   </g>
   <g id="text_46">
    <!-- 7614 -->
    <g transform="translate(639.128159 481.362254) rotate(-90) scale(0.16 -0.16)">
     <use xlink:href="#DejaVuSans-37"/>
     <use xlink:href="#DejaVuSans-36" x="63.623047"/>
     <use xlink:href="#DejaVuSans-31" x="127.246094"/>
     <use xlink:href="#DejaVuSans-34" x="190.869141"/>
    </g>
   </g>
   <g id="text_47">
    <!-- 2528 -->
    <g transform="translate(728.573959 493.484661) rotate(-90) scale(0.16 -0.16)">
     <use xlink:href="#DejaVuSans-32"/>
     <use xlink:href="#DejaVuSans-35" x="63.623047"/>
     <use xlink:href="#DejaVuSans-32" x="127.246094"/>
     <use xlink:href="#DejaVuSans-38" x="190.869141"/>
    </g>
   </g>
   <g id="text_48">
    <!-- 320 -->
    <g transform="translate(818.019759 483.301839) rotate(-90) scale(0.16 -0.16)">
     <use xlink:href="#DejaVuSans-33"/>
     <use xlink:href="#DejaVuSans-32" x="63.623047"/>
     <use xlink:href="#DejaVuSans-30" x="127.246094"/>
    </g>
   </g>
   <g id="text_49">
    <!-- 386 -->
    <g transform="translate(907.465558 486.599134) rotate(-90) scale(0.16 -0.16)">
     <use xlink:href="#DejaVuSans-33"/>
     <use xlink:href="#DejaVuSans-38" x="63.623047"/>
     <use xlink:href="#DejaVuSans-36" x="127.246094"/>
    </g>
   </g>
   <g id="text_50">
    <!-- 221 -->
    <g transform="translate(996.911358 487.811374) rotate(-90) scale(0.16 -0.16)">
     <use xlink:href="#DejaVuSans-32"/>
     <use xlink:href="#DejaVuSans-32" x="63.623047"/>
     <use xlink:href="#DejaVuSans-31" x="127.246094"/>
    </g>
   </g>
   <g id="text_51">
    <!-- 102 -->
    <g transform="translate(1086.357158 489.072105) rotate(-90) scale(0.16 -0.16)">
     <use xlink:href="#DejaVuSans-31"/>
     <use xlink:href="#DejaVuSans-30" x="63.623047"/>
     <use xlink:href="#DejaVuSans-32" x="127.246094"/>
    </g>
   </g>
   <g id="legend_1">
    <g id="patch_39">
     <path d="M 940.2475 311.631455 
L 1130 311.631455 
Q 1133.2 311.631455 1133.2 308.431455 
L 1133.2 221.89833 
Q 1133.2 218.69833 1130 218.69833 
L 940.2475 218.69833 
Q 937.0475 218.69833 937.0475 221.89833 
L 937.0475 308.431455 
Q 937.0475 311.631455 940.2475 311.631455 
z
" style="fill: #ffffff; opacity: 0.8; stroke: #cccccc; stroke-linejoin: miter"/>
    </g>
    <g id="text_52">
     <!-- Duration -->
     <g transform="translate(1013.408125 232.696767) scale(0.1 -0.1)">
      <use xlink:href="#DejaVuSans-44"/>
      <use xlink:href="#DejaVuSans-75" x="77.001953"/>
      <use xlink:href="#DejaVuSans-72" x="140.380859"/>
      <use xlink:href="#DejaVuSans-61" x="181.494141"/>
      <use xlink:href="#DejaVuSans-74" x="242.773438"/>
      <use xlink:href="#DejaVuSans-69" x="281.982422"/>
      <use xlink:href="#DejaVuSans-6f" x="309.765625"/>
      <use xlink:href="#DejaVuSans-6e" x="370.947266"/>
     </g>
    </g>
    <g id="patch_40">
     <path d="M 943.4475 254.933955 
L 975.4475 254.933955 
L 975.4475 243.733955 
L 943.4475 243.733955 
z
" style="fill: #8ecfc9"/>
    </g>
    <g id="text_53">
     <!-- within a month -->
     <g transform="translate(988.2475 254.933955) scale(0.16 -0.16)">
      <use xlink:href="#DejaVuSans-77"/>
      <use xlink:href="#DejaVuSans-69" x="81.787109"/>
      <use xlink:href="#DejaVuSans-74" x="109.570312"/>
      <use xlink:href="#DejaVuSans-68" x="148.779297"/>
      <use xlink:href="#DejaVuSans-69" x="212.158203"/>
      <use xlink:href="#DejaVuSans-6e" x="239.941406"/>
      <use xlink:href="#DejaVuSans-20" x="303.320312"/>
      <use xlink:href="#DejaVuSans-61" x="335.107422"/>
      <use xlink:href="#DejaVuSans-20" x="396.386719"/>
      <use xlink:href="#DejaVuSans-6d" x="428.173828"/>
      <use xlink:href="#DejaVuSans-6f" x="525.585938"/>
      <use xlink:href="#DejaVuSans-6e" x="586.767578"/>
      <use xlink:href="#DejaVuSans-74" x="650.146484"/>
      <use xlink:href="#DejaVuSans-68" x="689.355469"/>
     </g>
    </g>
    <g id="patch_41">
     <path d="M 943.4475 278.418955 
L 975.4475 278.418955 
L 975.4475 267.218955 
L 943.4475 267.218955 
z
" style="fill: #ffbe7a"/>
    </g>
    <g id="text_54">
     <!-- within a year -->
     <g transform="translate(988.2475 278.418955) scale(0.16 -0.16)">
      <use xlink:href="#DejaVuSans-77"/>
      <use xlink:href="#DejaVuSans-69" x="81.787109"/>
      <use xlink:href="#DejaVuSans-74" x="109.570312"/>
      <use xlink:href="#DejaVuSans-68" x="148.779297"/>
      <use xlink:href="#DejaVuSans-69" x="212.158203"/>
      <use xlink:href="#DejaVuSans-6e" x="239.941406"/>
      <use xlink:href="#DejaVuSans-20" x="303.320312"/>
      <use xlink:href="#DejaVuSans-61" x="335.107422"/>
      <use xlink:href="#DejaVuSans-20" x="396.386719"/>
      <use xlink:href="#DejaVuSans-79" x="428.173828"/>
      <use xlink:href="#DejaVuSans-65" x="487.353516"/>
      <use xlink:href="#DejaVuSans-61" x="548.876953"/>
      <use xlink:href="#DejaVuSans-72" x="610.15625"/>
     </g>
    </g>
    <g id="patch_42">
     <path d="M 943.4475 301.903955 
L 975.4475 301.903955 
L 975.4475 290.703955 
L 943.4475 290.703955 
z
" style="fill: #fa7f6f"/>
    </g>
    <g id="text_55">
     <!-- more than a year -->
     <g transform="translate(988.2475 301.903955) scale(0.16 -0.16)">
      <use xlink:href="#DejaVuSans-6d"/>
      <use xlink:href="#DejaVuSans-6f" x="97.412109"/>
      <use xlink:href="#DejaVuSans-72" x="158.59375"/>
      <use xlink:href="#DejaVuSans-65" x="197.457031"/>
      <use xlink:href="#DejaVuSans-20" x="258.980469"/>
      <use xlink:href="#DejaVuSans-74" x="290.767578"/>
      <use xlink:href="#DejaVuSans-68" x="329.976562"/>
      <use xlink:href="#DejaVuSans-61" x="393.355469"/>
      <use xlink:href="#DejaVuSans-6e" x="454.634766"/>
      <use xlink:href="#DejaVuSans-20" x="518.013672"/>
      <use xlink:href="#DejaVuSans-61" x="549.800781"/>
      <use xlink:href="#DejaVuSans-20" x="611.080078"/>
      <use xlink:href="#DejaVuSans-79" x="642.867188"/>
      <use xlink:href="#DejaVuSans-65" x="702.046875"/>
      <use xlink:href="#DejaVuSans-61" x="763.570312"/>
      <use xlink:href="#DejaVuSans-72" x="824.849609"/>
     </g>
    </g>
   </g>
  </g>
 </g>
 <defs>
  <clipPath id="p68ac61a3fd">
   <rect x="83.503418" y="28.414286" width="1057.696582" height="473.501213"/>
  </clipPath>
 </defs>
</svg>
